<svg xmlns="http://www.w3.org/2000/svg" viewBox="0 0 64 64" role="img" aria-label="زاد الشرقية">
  <defs>
    <linearGradient id="bg" x1="0" y1="0" x2="1" y2="1">
      <stop offset="0%" stop-color="#042C53"/>
      <stop offset="100%" stop-color="#0C447C"/>
    </linearGradient>
    <linearGradient id="grain" x1="0" y1="0" x2="0" y2="1">
      <stop offset="0%" stop-color="#E8C547"/>
      <stop offset="55%" stop-color="#C9A227"/>
      <stop offset="100%" stop-color="#5DCAA5"/>
    </linearGradient>
  </defs>
  <rect width="64" height="64" rx="14" fill="url(#bg)"/>
  <g transform="translate(32 10)">
    <path d="M0 38 C-2 28 -6 18 -4 8 C-3 4 0 2 0 0 C0 2 3 4 4 8 C6 18 2 28 0 38Z" fill="url(#grain)" opacity="0.95"/>
    <path d="M-8 34 C-10 24 -12 16 -10 10 C-9 7 -7 5 -6 4 C-5 8 -4 20 -6 32Z" fill="#5DCAA5" opacity="0.75"/>
    <path d="M8 34 C10 24 12 16 10 10 C9 7 7 5 6 4 C5 8 4 20 6 32Z" fill="#5DCAA5" opacity="0.75"/>
  </g>
  <text x="32" y="56" text-anchor="middle" fill="#FFFFFF" font-family="Arial,Tahoma,sans-serif" font-size="11" font-weight="700">زاد</text>
</svg>
